<svg width="525" height="500" viewBox="0 0 525 500" fill="none" xmlns="http://www.w3.org/2000/svg">
    <path d="M94.2627 327.898C80.1482 354.043 63.893 383.781 46.0168 416.259H190.473C192.865 415.752 195.251 415.265 197.628 414.818C195.173 404.257 193.779 392.834 193.873 380.915L193.968 378.378C194.438 359.383 198.434 342.033 204.888 327.898H94.2627ZM295.371 327.898C303.204 344.549 307.655 365.522 307.099 387.958C306.863 397.5 305.788 406.678 303.908 415.192C305.566 415.516 307.241 415.905 308.907 416.259H450.722C431.758 400.991 410.358 382.09 370.753 361.756C400.974 369.611 422.612 378.673 439.478 388.803C427.6 366.681 417.002 346.808 406.957 327.898H295.371Z" fill="#3558A0" />
    <path d="M137.569 246.45C124.549 271.419 109.356 299.969 91.5576 332.891H202.779C213.264 306.395 231.955 289.55 252.832 291.319C271.598 292.91 287.846 309.174 297.563 332.891H409.607C392.108 299.985 377.103 271.43 364.169 246.45H137.569Z" fill="#138F3E" />
    <path d="M179.518 163.277C167.875 187.41 153.809 215.362 135.859 249.718H365.866C348.11 215.473 333.866 187.279 322.148 163.277H209.259C220.868 174.267 234.884 186.183 253.209 199.003C224.628 187.238 204.037 175.432 188.216 163.277H179.518Z" fill="#FAD220" />
    <path d="M216.973 80.101C208.75 99.7955 200.079 119.733 189.179 143.031C196.055 150.322 203.719 158.184 212.774 166.542H323.759C307.021 132.369 294.899 105.826 283.681 80.101H216.973ZM181.951 158.244C180.662 160.935 179.293 163.754 177.942 166.542H192.604C188.808 163.793 185.262 161.03 181.951 158.244V158.244Z" fill="#FF7300" />
    <path d="M249.546 0C236.606 31.7357 226.628 57.0974 215.689 83.1735H285.02C273.545 56.9652 263.058 31.717 249.546 0Z" fill="#FF000E" />
    <path fill-rule="evenodd" clip-rule="evenodd" d="M47.812 412.995C33.1506 439.647 17.6084 467.784 0 499.433C79.1267 453.738 140.464 425.567 197.628 414.818C197.488 414.216 197.365 413.602 197.231 412.995H47.812ZM304.332 412.995C304.185 413.723 304.067 414.473 303.908 415.192C360.412 426.248 421.051 454.32 499.03 499.343C499.065 499.339 499.1 499.336 499.135 499.332C483.766 471.028 470.043 445.504 456.94 421.199C453.587 418.599 450.164 415.832 446.673 412.991L304.332 412.995Z" fill="#880082" />
    <path d="M495.091 439.331V441.164H500.205V454.856H502.259V441.164H507.395V439.331H495.091Z" fill="white" />
    <path d="M509.533 454.856V439.331H512.624L516.298 450.324C516.636 451.348 516.884 452.114 517.039 452.622C517.215 452.057 517.491 451.228 517.864 450.133L521.581 439.331H524.344V454.856H522.364V441.862L517.854 454.856H516.001L511.512 441.64V454.856H509.533" fill="white" />
</svg>